<svg xmlns="http://www.w3.org/2000/svg" viewBox="0 0 152.24 150.89"><g id="Layer_2" data-name="Layer 2"><g id="Layer_1-2" data-name="Layer 1"><path d="M98,33.88a27.46,27.46,0,0,1,5.85,3.39A45.65,45.65,0,0,1,114.69,47.8a48.56,48.56,0,0,1,7.9,16.82,50.66,50.66,0,0,1,.77,19.54A31,31,0,0,1,121.54,91c-.39,1,.11,1.2.62,1.49,1.89,1.07,3.82,2.08,5.74,3.1,2.15,1.14,2.17,1.13,2.95-1.3a57.45,57.45,0,0,0,2.84-22.57c-.17-2-.49-4-.79-6.06-.08-.55-.14-1.1.47-1.22.8-.17.65.65.72,1a53.74,53.74,0,0,1,.34,19.22,66.33,66.33,0,0,1-2.74,10.94,2.87,2.87,0,0,1-.24.57c-.59.92-.29,1.41.71,1.73a2,2,0,0,1,1.41,1.18H132a16.71,16.71,0,0,0-3.79-1.87c-2-.28-3.67-1.5-5.51-2.23-2.43-1-4.83-2-7.26-2.93-2.79-1.08-5.53-2.27-8.3-3.38-3.54-1.43-7.11-2.78-10.62-4.3-3.23-1.4-6.54-2.61-9.76-4-.5-.22-1.12-.49-1.47.11a10.89,10.89,0,0,1-4,4c.42.39.75.12,1,.21a2.93,2.93,0,0,1,2.37,2c1,3.26,1.89,6.55,2.89,9.8a47.45,47.45,0,0,0,1.78,5.69,7.65,7.65,0,0,1,.51,2.69c0,.16,0,0,0,.12,0,.58.54,1.37-.23,1.66s-.74-.75-1.24-1c-5-7.83-9.54-16.38-9.45-17.6,0-.17-.28,0-.12,0s0,0,0,.08a7.25,7.25,0,0,1-1.17,2.42c-2,3.46-3.81,7-5.73,10.46-1,1.78-2,3.53-2.91,5.36a2.24,2.24,0,0,1-.52.69,3.5,3.5,0,0,0-1,2c-1.06,2-2.13,4-3.24,6-.82,1.45-.71,1.77.89,2a5.23,5.23,0,0,1,1,.21,32.32,32.32,0,0,0,10.94,1.47,42.44,42.44,0,0,0,14-2.5,43.49,43.49,0,0,0,16.76-10.89,45.36,45.36,0,0,0,6.55-9.06,5.8,5.8,0,0,1,.34-.52c.63-.65,1-1.92,2.29-1.07a1.56,1.56,0,0,1-.12.93,8.62,8.62,0,0,0-.77,1.66,40.26,40.26,0,0,1-5.86,8.49,43.64,43.64,0,0,1-9.79,8.22,44.3,44.3,0,0,1-16.93,6.26,51.57,51.57,0,0,1-8.32.43,41.85,41.85,0,0,1-12.77-2.21c-.13.63.3.77.74.89a38.59,38.59,0,0,0,12.25,1.92c2.28-.08,4.56.13,6.85-.16a46.45,46.45,0,0,0,10.25-2.54A45.2,45.2,0,0,0,117,97a3.18,3.18,0,0,1,1.36-1.58c.72-.09,1.43-.16,1.1,1a48.52,48.52,0,0,1-9.13,13,46.62,46.62,0,0,1-10.2,7.78,45.73,45.73,0,0,1-14.29,5.29,46.45,46.45,0,0,1-15.74.36,59.74,59.74,0,0,1-8-1.86,1.68,1.68,0,0,1-1-.7c-1.49,2.71-2.93,5.32-4.38,7.93-.38.68-.52,1.09.49,1.45a58.71,58.71,0,0,0,12,3,54.43,54.43,0,0,0,17.37-.34c.54-.1,1.49-.68,1.67.34s-.89.72-1.43.84a46.49,46.49,0,0,1-11.65.93,54,54,0,0,1-18.9-3.86c-.41-.17-.75-.28-1,.31s-.64,1.05-.93,1.6c-.12.23-.18.5-.5.38a.45.45,0,0,1-.18-.73,2.21,2.21,0,0,0,.42-1.64c.88-.63,1.07-1.68,1.52-2.57.16-.32.15-.72.44-1a24.83,24.83,0,0,0,2.18-5c.58-1.48,1.2-3,1.77-4.45,1.14-3,2.44-5.92,3.57-8.93.59-1.57,1.37-3.06,2-4.62,1.09-2.66,2.1-5.35,3.19-8,.68-1.67,1.4-3.33,2-5,.75-1.91,1.61-3.79,2.28-5.74.16-.46.06-.62-.34-.85a12.18,12.18,0,0,1-4-3.66c-.14-.17-.25-.74-.5-.23-.17.35-.54.6-.54,1.06,0,1.61-1,2.3-2.42,2.63-2.47,1-5.1,1.47-7.61,2.33-2.23.76-4.56,1.21-6.77,2-.89.35-1.87.35-2.78.67-.68.23-1,.42-.54,1.3a33.36,33.36,0,0,0,12.86,13.85,1.63,1.63,0,0,1,.29.23c.26.34.53.74.23,1.11s-.61.17-.92,0a32.18,32.18,0,0,1-9.6-8.08,30.37,30.37,0,0,1-4.58-7.45c-.17-.41-.33-.55-.72-.36a1.2,1.2,0,0,1-1.09,0c1.4-.55,1.06-1.36.68-2.42A32.67,32.67,0,0,1,43,72.55,25.22,25.22,0,0,1,44.07,67c.12-.35,0-.46-.19-.58-1.48-.84-2.93-1.76-4.48-2.45-1-.44-1.74-1.26-2.8-1.51-.45-.22-.94-.35-1.39-.57a1.82,1.82,0,0,1-.31-.16,26.68,26.68,0,0,1-3-1.84c-2.48-1.35-5-2.66-7.43-4.07-.69-.41-.94-.38-1.21.39A59.89,59.89,0,0,0,20.2,82.89c.14,1.19.36,2.38.6,3.55.12.58.09,1-.56,1.14s-.58-.42-.65-.81a58.9,58.9,0,0,1-.88-14.28,56.47,56.47,0,0,1,2.23-13c.39-1.34.88-2.65,1.26-4,.13-.43.48-.35.75-.5-.77-.49-1.54-1-2.29-1.45-.22-.15-.63-.22-.45-.62s.46-.06.67,0a3.37,3.37,0,0,0,1.22.17c.6.71,1.52.86,2.28,1.29,2,.76,3.93,1.55,5.9,2.31,4.63,1.81,9.21,3.73,13.81,5.6,4,1.63,8,3.16,12,4.89,2.23,1,4.52,1.82,6.8,2.71,1.46.57,2.9,1.21,4.38,1.73.62.22,1,.19,1.36-.41a10.14,10.14,0,0,1,3.68-3.62,3.49,3.49,0,0,0,1.14-1,1.26,1.26,0,0,1-2,.28c-.74-.49-1.79-.53-2.47-1.27-1-4.09-2.43-8.08-3.54-12.16a36.34,36.34,0,0,0-1.65-5.45,7.41,7.41,0,0,1-.52-2.29c.32-1.12.32-1.12,1.44-.34,3.53,5.8,6.68,11.83,10.18,17.77a22.11,22.11,0,0,0,2.39-4.12c2.55-4.38,4.87-8.88,7.31-13.32.63-1.14.6-1.24-.66-1.61a21.1,21.1,0,0,0-6.53-.65c-.47,0-.94,0-1.41,0a25.47,25.47,0,0,0-7.9,1.13,8.54,8.54,0,0,1-1.94.38c-.54-.25-1.48.64-1.7-.58a3,3,0,0,1,2.14-1.34,34.93,34.93,0,0,1,17.84-.65c1.68.4,1.71.31,2.56-1.14a58.92,58.92,0,0,1,3.39-5.93,12.26,12.26,0,0,0,1.16-1.62c.37-.53.36-1.27.95-1.67l0,.06a4.12,4.12,0,0,0,.8-1.43,68.71,68.71,0,0,1,3.67-6.81c.57-1,.23-1.35-.59-1.6a75,75,0,0,0-10.29-2.64,59.66,59.66,0,0,0-13.42-.57c-2,.15-3.87.47-5.8.74l-.49.08c-.45,0-1,.17-1.11-.46s.42-.68.88-.79a35,35,0,0,1,5.68-.74A58.87,58.87,0,0,1,90,19.17a40.55,40.55,0,0,1,7.6,2.44c.54.25.5-.14.71-.33.64-.58.49-1.72,1.61-2.09l.06,1.18a33.76,33.76,0,0,0-1.91,3.86,4,4,0,0,1-.34.8,6.13,6.13,0,0,0-.48,1.32c-1.31,3.51-2.77,6.94-4.17,10.41L89.75,45c-1.1,2.72-2.21,5.45-3.3,8.18s-2.32,5.43-3.31,8.2a32.75,32.75,0,0,1-1.67,4c-.79,1.5-.7,1.79.63,2.74a9.32,9.32,0,0,1,2.39,2.34c.2.32.4.64.86.66.35-.16.17-.51.21-.76A3,3,0,0,1,88,67.9q6.83-1.94,13.62-4c1.57-.48,3.16-.95,4.77-1.36a8.41,8.41,0,0,0,1.11-.23,3.35,3.35,0,0,0,.94-.31c.37-.12.77-.2,1,.15s-.07.6-.3.84c-.41.41-.22.86-.06,1.28a34.48,34.48,0,0,1,1.92,14.49,22.06,22.06,0,0,1-.81,5.41c-.3.93,0,1.43.89,1.87,1.82.91,3.64,1.81,5.37,2.89.66.42,1,.43,1.18-.42a48.66,48.66,0,0,0,1.73-10.93,50.38,50.38,0,0,0-.38-8,42.42,42.42,0,0,0-2.62-9.47A43.32,43.32,0,0,0,99.34,39.71a13.88,13.88,0,0,0-2.73-1.49,2.32,2.32,0,0,1-1.52-1.84.81.81,0,0,1,.3-.89c.3-.22.54,0,.79.13a44.93,44.93,0,0,1,22.06,23.29,45.39,45.39,0,0,1,3.27,19.78,44.59,44.59,0,0,1-1.94,10.65,7.55,7.55,0,0,1-.52,1c.74.42.87-.11,1-.6a50.57,50.57,0,0,0,1.79-8,44.53,44.53,0,0,0-.43-13.92A48.27,48.27,0,0,0,117,55.08a45.74,45.74,0,0,0-8.83-11.85,41.19,41.19,0,0,0-9.42-6.89,14.39,14.39,0,0,1-2-1.24,1.8,1.8,0,0,1-.38-.49,1,1,0,0,1,.09-1.17c.36-.37.68,0,1,.15S97.84,33.8,98,33.88Z" style="fill:#5e6279"/><path d="M31.93,59.86a8.68,8.68,0,0,1,3.19,1.79,2.8,2.8,0,0,1-.2,1.59,41.17,41.17,0,0,0-1.17,21,43.12,43.12,0,0,0,17.11,27.19,34.88,34.88,0,0,0,5.47,3.47,1.54,1.54,0,0,0,1.74,0c.4-.3.72-.14.55.29-.4,1.06-.31,2.25-.81,3.25-.31.61-1,.37-1.54.24a10.91,10.91,0,0,1-2.93-1.53,47.11,47.11,0,0,1-12.09-9.93,48,48,0,0,1-5.91-8.37,49.18,49.18,0,0,1-4-9.84A48.6,48.6,0,0,1,30,68.77,30.29,30.29,0,0,1,32,61C32.18,60.54,32.3,60.2,31.93,59.86Z" style="fill:#9899a8"/><path d="M76.86,12.66A59.45,59.45,0,0,1,93.23,14.8a63.35,63.35,0,0,1,14.44,5.92,65,65,0,0,1,10.07,7,60,60,0,0,1,5.91,5.81,78.34,78.34,0,0,1,5.72,7.29c.26.36.91.8.38,1.27s-1.08.13-1.45-.41c-1.48-2.09-3-4.13-4.68-6.1a64.2,64.2,0,0,0-6.74-6.76A52.87,52.87,0,0,0,110,23.69a63.48,63.48,0,0,0-9-4.67A61.21,61.21,0,0,0,92,15.93a61.87,61.87,0,0,0-19.23-1.67,44.47,44.47,0,0,0-8.37,1.13c-.69.18-.93-.13-1.06-.65s.35-.72.8-.81A70.84,70.84,0,0,1,76.86,12.66Z" style="fill:#65687f"/><path d="M75.5,139.38a64.87,64.87,0,0,1-14.4-2,63.14,63.14,0,0,1-15.33-6.15A61.94,61.94,0,0,1,29.9,118.51,47,47,0,0,1,24.14,111c-.18-.31-.76-.6-.18-1a.85.85,0,0,1,1.36.26,55.92,55.92,0,0,0,6.86,8.63A65.85,65.85,0,0,0,41.69,127a57.37,57.37,0,0,0,13.84,7.21,60.36,60.36,0,0,0,29,3.23c1.52-.21,3-.42,4.55-.67.58-.1,1.16-.21,1.33.47.23.88-.63.79-1,.86A71.59,71.59,0,0,1,75.5,139.38Z" style="fill:#65687f"/><path d="M140,74.07a59.33,59.33,0,0,1-2.66,20.53,62.09,62.09,0,0,1-5.75,13.11A65.15,65.15,0,0,1,123.33,119a62.6,62.6,0,0,1-10,8.76l-1.62,1.15c-.36.25-.77.44-1.06,0s-.23-.77.28-1.14c2.3-1.68,4.63-3.33,6.78-5.2a52.23,52.23,0,0,0,5.81-5.9,66,66,0,0,0,4.52-5.91A55.73,55.73,0,0,0,134,99.5c.69-1.8,1.42-3.6,2-5.45a60.82,60.82,0,0,0,2.62-14.77,62.69,62.69,0,0,0-1.17-15.64c-.1-.49-.18-1,.54-1.16s.7.4.78.82A57.22,57.22,0,0,1,140,74.07Z" style="fill:#65697f"/><path d="M92.49,32.08a6,6,0,0,1-.72,1.83.77.77,0,0,1-.22-.31c-.13-.59-.63-.72-1.11-.88a47.17,47.17,0,0,0-10-2,45.43,45.43,0,0,0-24.76,5.1A43.84,43.84,0,0,0,41.07,48a46.44,46.44,0,0,0-4.58,7.26A4.44,4.44,0,0,1,36,56c-.51.46-1.13,1.17-1.76.63s.1-1.19.37-1.76a41.41,41.41,0,0,1,4.88-7.86,45.25,45.25,0,0,1,7.27-7.56,48.89,48.89,0,0,1,6-4.17,44.34,44.34,0,0,1,12.06-5,43.75,43.75,0,0,1,19.84-.86,51.76,51.76,0,0,1,6.74,1.65A1.45,1.45,0,0,1,92.49,32.08Z" style="fill:#63677e"/><path d="M13.59,74.64A57.31,57.31,0,0,1,15.8,59.17,57.77,57.77,0,0,1,21.07,46,62.72,62.72,0,0,1,38.24,25.86c1.12-.85,2.23-1.71,3.42-2.46.39-.25.92-.82,1.36,0,.35.62-.17.91-.58,1.18a58.74,58.74,0,0,0-9.55,7.89,64.13,64.13,0,0,0-8.84,11.31,66.91,66.91,0,0,0-6,12.83,55.92,55.92,0,0,0-1.87,7.31,64.33,64.33,0,0,0-.42,22.44c.1.77.35,1.53.51,2.3a.74.74,0,0,1-.66,1c-.58.08-.63-.36-.73-.79A66.83,66.83,0,0,1,13.59,74.64Z" style="fill:#63677e"/><path d="M58.07,114.9c-.21.83-.44,1.07-1.41.57a44.41,44.41,0,0,1-13.82-11,43.44,43.44,0,0,1-7.08-12.06A45.16,45.16,0,0,1,33,82a39.54,39.54,0,0,1,.1-12.52,32.6,32.6,0,0,1,2-7.85h0c.39.34,1.14.45.75,1.25A40.31,40.31,0,0,0,34.14,71a41.22,41.22,0,0,0,.5,13.15,43.19,43.19,0,0,0,4.49,12.52,42.14,42.14,0,0,0,11.19,13.23A78.17,78.17,0,0,0,58.07,114.9Z" style="fill:#64677e"/><path d="M.68,52.15c.25-.65.51-1.3.75-2,.1-.25.21-.48.5-.47s.36.33.33.56c-.11.83.36.91,1,1,2.44.23,4.87.54,7.37.82a2.51,2.51,0,0,0-1.17-1.45C8.63,50,7.87,49.21,7,48.51a3,3,0,0,0-3.74-.45.67.67,0,0,1-.7.09c-.36-.22-.1-.51,0-.77.35-.88.72-1.76,1-2.64a.48.48,0,0,1,.57-.35c.38,0,.33.32.28.56a.64.64,0,0,0,.63.86c2.54.27,5.08.52,7.75.79-.26-1.09-1.17-1.4-1.74-1.86-1.18-1-2.33-2-3.56-2.91-.6-.44-1.17-1-1.88-.13a.55.55,0,0,1-.56.07c-.29-.15-.16-.43-.06-.66.2-.45.45-.88.63-1.34s.34-1.24.78-1.26.4.79.64,1.2a8.79,8.79,0,0,0,2.05,1.94c1.87,1.64,3.78,3.23,5.7,4.82.45.38.76.75.53,1.37s-.84.41-1.28.39c-1.93-.07-3.86-.19-6-.31,1.45,1.66,3.17,2.71,4.59,4.08.37.37.8.58.52,1.2s-.75.65-1.34.57c-3.13-.43-6.29-.45-9.44-.66-.58,0-1.19-.1-1.57.51C.31,53.32.31,53.32.68,52.15Z" style="fill:#63677e"/><path d="M103.08,2.75c-.6,1.39-1.3,2.75-1.76,4.18-.29.87-.74,1.66-1,2.51s-.93,1.74.39,2.29a.26.26,0,0,1,.15.4c-.1.2-.31.36-.49.3-1-.36-2.09-.74-3.12-1.15-.2-.08-.24-.34-.2-.55s.37-.31.59-.27c.81.14,1.14-.25,1.42-1,.94-2.41,2-4.79,3-7.18.25-.6.2-1-.41-1.35a.51.51,0,0,1-.3-.71c.18-.42.49-.15.75-.11l.11.05c2.23.48,3.07,1.83,3.15,4.12a29.91,29.91,0,0,0,1.23,6.32,31.72,31.72,0,0,0,2.51-5.75.82.82,0,0,0-.51-1.11.47.47,0,0,1-.22-.64c.13-.28.43-.22.66-.16,1,.23,1.72,1,2.72,1.11.11,0,.23.34.23.52s-.23.32-.45.29c-.94-.14-1.27.44-1.58,1.2-1.08,2.67-2.23,5.31-3.32,8-.15.36-.17.72-.7.64s-.63-.38-.71-.85c-.6-3.67-1.23-7.34-1.85-11Z" style="fill:#63677e"/><path d="M152,100.35a1.93,1.93,0,0,1,0,1.92c-1.06,2.23-1.92,4.54-2.8,6.84a1,1,0,0,1-1,.71c-.7,0-1.41-.08-2.11-.12-.27,0-.51-.08-.53-.4a.47.47,0,0,1,.5-.57c2.16-.08,2.9-1.6,3.43-3.35.66-2.18.68-2.23-1.51-3-.57-.2-1.31-1-1.91,0a2,2,0,0,0,.38,2.77c.29.24.69.41.44.86s-.69.1-1,0c-1.11-.42-2.19-.91-3.28-1.37-.32-.13-.69-.25-.54-.68s.49-.3.84-.23a2.13,2.13,0,0,0,2.44-2.1c0-.4-.37-.43-.59-.55a13.18,13.18,0,0,0-3-1.14.81.81,0,0,0-.9.17c-1.16,1.19-1.6,4.79-.75,6.22.19.32.42.61.64.92a.6.6,0,0,1-.06.8c-.34.34-.46-.17-.71-.22a.23.23,0,0,1-.1-.07c-2.51-2.4-2.75-1.45-1.3-4.84a43,43,0,0,0,2.16-5.52,1.62,1.62,0,0,1,.37-.63c.12-.14.34-.34.47-.31.28.06.33.3.21.59-.23.6.07.84.61,1.12,2.43,1.21,5.05,2,7.48,3.16C151,101.89,151.46,101.26,152,100.35Z" style="fill:#64677e"/><path d="M49.13,150.89a5.1,5.1,0,0,1-4-1.89c-.3-.41-.6-.85-1.32-.43s-.79-.2-.69-.72c.17-.94.39-1.87.61-2.79.07-.31.12-.71.57-.7s.49.44.55.81a5.1,5.1,0,0,0,1.72,3.71,3.69,3.69,0,0,0,1.77.82c1.09.15,2.15.07,2.62-1.11s-.24-1.82-1-2.54a44,44,0,0,1-3.68-3.3c-1.61-1.84.23-4.41,2.18-4.54A5.76,5.76,0,0,1,53,139.88c.18.16.2.55.51.49,1.82-.4,1,.81,1,1.58,0,.46-.06.91-.1,1.37s-.12.78-.62.76-.61-.39-.61-.8a4.56,4.56,0,0,0-1.22-2.76A3.19,3.19,0,0,0,49,139.4c-.52,0-1.22.11-1.4.82a1.89,1.89,0,0,0,.5,1.94c1.27,1.25,2.81,2.18,4,3.55a2.7,2.7,0,0,1,.66,3.16,3.35,3.35,0,0,1-3,2C49.55,150.9,49.34,150.89,49.13,150.89Z" style="fill:#64677e"/><path d="M101.5,23.17a58.22,58.22,0,0,1,8.66,5,53.37,53.37,0,0,1,7.27,6,47.44,47.44,0,0,1,6.14,7.13,22.17,22.17,0,0,1,1.37,1.92c.22.41.27.64-.1.94s-.78.09-1-.27a45.63,45.63,0,0,0-4.08-5.31,59.13,59.13,0,0,0-6.19-6.07,56.56,56.56,0,0,0-10.41-7c-.69-.38-1.42-.68-2.12-1-.73-.14-1.29-.76-2.09-.7-.3,0-.38-.29-.38-.55s.09-.55.42-.46.6-.49,1-.25h0A5.61,5.61,0,0,1,101.5,23.17Z" style="fill:#676a81"/><path d="M130,99.9a58.66,58.66,0,0,1-15.85,20.95,28.7,28.7,0,0,1-4.38,3.22c-.35.19-.68.63-1,.05s0-1,.5-1.23a41.14,41.14,0,0,0,4-3,57.83,57.83,0,0,0,9.26-9.82,74.61,74.61,0,0,0,5.95-9.84,11.36,11.36,0,0,0,.47-1.27.68.68,0,0,1,1.06-.39C130.69,99,130.12,99.44,130,99.9Z" style="fill:#676a80"/><path d="M24.1,51.14A58,58,0,0,1,44,27.79c.28-.2.63-.56.94,0a.67.67,0,0,1-.2,1c-2,1.62-4.14,3.16-6.09,4.9A57.28,57.28,0,0,0,31,42.15,52.68,52.68,0,0,0,25.63,51c-.18.37-.34.75-.5,1.13s-.2.73-.54,1l-.2.28c-.43.38-.85.83-1.26,0h0A22.43,22.43,0,0,1,24.1,51.14Z" style="fill:#676a80"/><path d="M53.06,129.19a29.75,29.75,0,0,1-5.06-2.5A56.08,56.08,0,0,1,35.36,117a60.74,60.74,0,0,1-6.63-8c-.24-.34-.55-.74,0-1,.39-.21.69-.14,1,.31a64.63,64.63,0,0,0,6.85,8.19,57.91,57.91,0,0,0,9.58,7.64,45.92,45.92,0,0,0,7.62,4c.43.26,1.16.49.79,1.1S53.56,129.7,53.06,129.19Z" style="fill:#5e6279"/><path d="M18.1,98.62c-.37-.72-.73-1.39-1.06-2.09a.62.62,0,0,1,0-.7c.23-.23.45,0,.63.13.38.36.7.14,1-.12.71-.64,1.39-1.29,2.13-2-2.27-.56-3.59-.27-4.08.87-.55-.15-.48-.73-.75-1.07s-.45-.71-.23-1,.65.06,1,.08c1.45.08,2.91.1,4.36.15a5.1,5.1,0,0,1,1.11.06c.63.17.86.51.3,1L21,95.43c-.2.2-.48.42-.39.73s.5.2.76.21c.62,0,1.24,0,1.87,0,.32,0,.71,0,.84.37s-.15.69-.44,1c-1,.91-2,1.83-3,2.75-.09.09-.15.23-.25.28-.54.23-.39,1.46-1,1.11s-.79-1.4-1-2.19c-.08-.33.13-.67.48-.4a.81.81,0,0,0,1.19,0,8.47,8.47,0,0,0,1.86-1.77c.26-.43-.26-.37-.51-.4C19.47,96.85,19.28,96.94,18.1,98.62Z" style="fill:#6f7287"/><path d="M55.32,16.66a4.45,4.45,0,0,1,2.88-.94c-1.08,1.25,0,1.85.71,2.46.37.32.61,1.19,1.18.86s.23-1.08.1-1.61.36-1.65-.83-1.95c-.19,0-.14-.57.18-.71A8.57,8.57,0,0,1,61,14.32c.26-.06.55,0,.36.4-.85,1.63-.11,3.35-.3,5-.06.5.27,1.19-.44,1.4s-1-.35-1.26-.79a.62.62,0,0,0-.18-.18c-.48-.27-.76-1.14-1.32-.9s-.15,1.05-.23,1.6a4.17,4.17,0,0,0,0,.5c0,.44.13,1-.39,1.22s-.84-.29-1.14-.57c-1-.93-1.95-1.92-2.91-2.88-.27-.54-.93-.17-1.27-.55v-.4c.23-.55.91-.38,1.24-.77h0L54.16,17h.11A6.1,6.1,0,0,0,56.5,20.3c.54-1.39.39-1.94-.72-2.85C55.53,17.24,55.21,17.08,55.32,16.66Z" style="fill:#696c82"/><path d="M50.71,25.14c.66-1.18,0-3.91-1-4.7-.58-.44-1-.1-1.47.18-.64.42-1.37,1.14-1,1.8.6,1,.26,2.81,2.13,3,.38.05.28.52-.16.67a5.94,5.94,0,0,0-1.81.79c-.17.13-.46.29-.67.06s-.05-.43.06-.67c.35-.82-.58-3.76-1.33-4.11a5,5,0,0,0-1.38-.12c1-.62,1-2,2.45-1.25a.28.28,0,0,0,.42-.08,3.25,3.25,0,0,1,.23-.29c1.75-2.09,3.6-1.95,4.68,1.13.29.83.26,2,1.63,2a.33.33,0,0,1,.13.63C52.69,24.59,51.85,25.27,50.71,25.14Z" style="fill:#727489"/><path d="M128,50.37c-.94-.75-1-1.85-1.47-2.67a.43.43,0,0,1,.12-.42.39.39,0,0,1,.54.16c.4.55.83.33,1.31.1.67-.32,1.37-.58,2.05-.87.42-.18.91-.32.78-.94-.05-.21-.13-.42.12-.53a.48.48,0,0,1,.65.19c.27.54,1.45.76.51,1.76-.25.27.46.57.75.83,1.69,1.47,1.36,3.4-.69,4.16a15.68,15.68,0,0,0-1.67.77c-1,.53-1,.54-1.2,1.58-.88-.61-1-1.61-1.29-2.47a.55.55,0,0,1,.12-.45c.15-.16.3,0,.39.12.4.55.8.36,1.28.09a11.65,11.65,0,0,1,1.8-.81c.7-.26,1.4-.58,1.17-1.46a2,2,0,0,0-1.79-1.67A3.84,3.84,0,0,0,128,50.37Z" style="fill:#6f7187"/><path d="M150.28,45.12c.13.51-.24.47-.48.61-2.16,1.22-4.55,1.92-6.78,3-1.52.73-3.17,1.17-4.63,2a5.51,5.51,0,0,1-.95.26c-.47.16-.72-.11-.87-.47s0-.71.45-.87c2.32-1,4.64-1.87,6.95-2.84q2.59-1.08,5.16-2.26C149.86,44.23,150.1,44.62,150.28,45.12Z" style="fill:#686b81"/><path d="M102.34,135.88c.52-.06.64.23.78.56,1.12,2.69,2.26,5.37,3.39,8.06.53,1.25,1,2.53,1.61,3.75.26.54.34.94-.24,1.23s-.81-.11-1-.58c-1-2.27-1.92-4.53-2.88-6.8-.71-1.68-1.39-3.36-2.12-5C101.58,136.41,101.78,136.05,102.34,135.88Z" style="fill:#686b82"/><path d="M51.8,15c.11.73,0,1-.41,1.11a.73.73,0,0,1-.9-.48c-.83-1.89-1.72-3.76-2.46-5.69s-1.61-3.86-2.41-5.79c-.2-.49-.74-1.1.09-1.48s.93.38,1.15.88q2.46,5.6,4.89,11.19C51.83,14.9,51.83,15.12,51.8,15Z" style="fill:#676a81"/><path d="M4.34,107.54c-.61.16-.66-.23-.78-.53-.23-.54.18-.79.54-1,1.07-.5,2.18-1,3.28-1.4,2.78-1.16,5.56-2.29,8.33-3.46.51-.22.91-.46,1.19.24s-.1.87-.56,1.06c-2.61,1.07-5.28,2-7.84,3.24-1.23.57-2.52,1-3.71,1.62C4.61,107.45,4.41,107.51,4.34,107.54Z" style="fill:#676a81"/><path d="M24.05,104.25a10.43,10.43,0,0,1,0,1.37,1.67,1.67,0,0,1-2.82,1.19c-1.07-.79-.67-2.15-1.17-3.18-.19-.39.63-.65,1-1a.5.5,0,0,1,.77-.06c.18.22.07.46-.08.68a2.6,2.6,0,0,0-.55,1.86A.94.94,0,0,0,22,106c.61,0,.67-.5.68-1s0-1.16,0-1.74c0-1.54.57-2.37,1.58-2.43a2.63,2.63,0,0,1,2.33,2.2c.1.52,0,1,.41,1.52a.55.55,0,0,1-.29.83c-.51.2-.73.91-1.31.81-.39-.07-.33-.47-.13-.81a3.28,3.28,0,0,0,.51-2c-.07-.68-.34-1.29-1.09-1.28s-.57.75-.63,1.24a8.42,8.42,0,0,0,0,.87Z" style="fill:#727489"/><path d="M102.88,130.42c-.42,0-.83,0-1.25,0-1.38-.06-1.9-.66-1.62-2a2.26,2.26,0,0,1,2-1.73c.93-.15,2-1,2.84.28.17.29.48.53.29.88s-.63.11-.87,0a2.72,2.72,0,0,0-2.72-.08.88.88,0,0,0-.49,1c.08.46.49.39.8.4.79,0,1.58,0,2.37,0a1.9,1.9,0,0,1,2.09,1.22c.35,1-.44,1.54-1.09,2-1,.73-2.75.73-3.3.07-.23-.28-.66-.53-.32-.94s.62,0,.89.12c.69.32,1.34.66,2.11.16.33-.22.59-.41.53-.87s-.43-.54-.82-.55h-1.49Z" style="fill:#6f7187"/><path d="M133.78,60a2.3,2.3,0,0,1-2.54-1.35A3.14,3.14,0,0,1,131.5,55c1.54-1.71,4.1-2,5.48.2a2.6,2.6,0,0,1-.57,3.62c-.6.5-.95.28-1.09-.28-.23-.9-.86-1.59-1.11-2.46s-.74-.84-1.37-.39c-1.4,1-1.43,2.34-.07,3.35A2.59,2.59,0,0,1,133.78,60Z" style="fill:#76788d"/><path d="M93.63,132a2.46,2.46,0,0,1,1.49-2.51,2.84,2.84,0,0,1,3.07,0,3.43,3.43,0,0,1,.65,5.58,3.52,3.52,0,0,1-3.39.37,1.48,1.48,0,0,1-.79-1.2c0-.49.52-.67,1-.83.74-.26,1.45-.58,2.18-.86.36-.14.59-.42.47-.77a2.06,2.06,0,0,0-1.6-1.56,1.64,1.64,0,0,0-2,.83C94.49,131.48,94.27,132,93.63,132Z" style="fill:#707288"/><path d="M12.58,85.26a1.83,1.83,0,1,1-1.9-1.84A1.81,1.81,0,0,1,12.58,85.26Z" style="fill:#666980"/><path d="M144.83,84.18a1.9,1.9,0,0,1-1.72,1.9,1.77,1.77,0,0,1-1.88-1.85A1.81,1.81,0,0,1,143,82.39,1.84,1.84,0,0,1,144.83,84.18Z" style="fill:#656980"/><path d="M37.57,23.3a1.74,1.74,0,0,1-1.85,1.84A2,2,0,0,1,34,23.28a2.12,2.12,0,0,1,1.85-1.8A1.86,1.86,0,0,1,37.57,23.3Z" style="fill:#666a80"/><path d="M85,7.9A2,2,0,0,1,86.9,9.65a1.89,1.89,0,0,1-3.77.07A2.08,2.08,0,0,1,85,7.9Z" style="fill:#63667d"/><path d="M21.87,35.77a1.65,1.65,0,0,1,1.7-1.85,1.84,1.84,0,0,1,.06,3.67A1.74,1.74,0,0,1,21.87,35.77Z" style="fill:#64687f"/><path d="M125.06,86.36a37.82,37.82,0,0,0,5.34,1.31c.5.11.53.46.48.85a.62.62,0,0,1-.79.59c-1.89-.41-3.77-.86-5.66-1.31A.62.62,0,0,1,124,87C124.11,86.36,124.57,86.37,125.06,86.36Z" style="fill:#74768b"/><path d="M119.56,128.71c0,1.26-.48,1.71-1.75,1.7a1.65,1.65,0,0,1-1.79-1.74,1.79,1.79,0,0,1,1.81-1.76A1.62,1.62,0,0,1,119.56,128.71Z" style="fill:#64687e"/><path d="M127.68,34.85a1.77,1.77,0,1,1,3.53.15,1.64,1.64,0,0,1-1.85,1.7C128.24,36.68,127.66,36,127.68,34.85Z" style="fill:#676a81"/><path d="M81.45,22.29,81,26.89c0,.49-.24.79-.77.74s-.71-.36-.67-.84c.11-1.65.21-3.3.34-4.94,0-.54,0-1.1.86-1S81.47,21.43,81.45,22.29Z" style="fill:#77798e"/><path d="M74,127c-.09,1-.2,2.2-.32,3.44-.06.52-.18,1-.89.9s-.58-.59-.56-1c.09-1.74.23-3.47.32-5.21,0-.59.31-.82.86-.79s.59.46.59.89Z" style="fill:#72748a"/><path d="M124.91,64.9c-.69,0-1.12.06-1.17-.57a.73.73,0,0,1,.65-.88c1.77-.44,3.53-.87,5.29-1.33a.73.73,0,0,1,1,.54.65.65,0,0,1-.51.87A50.48,50.48,0,0,0,124.91,64.9Z" style="fill:#74768b"/><path d="M85.93,143.93a1.6,1.6,0,0,1-1.65-1.86,1.63,1.63,0,0,1,1.85-1.66,1.78,1.78,0,0,1,1.7,1.88A1.71,1.71,0,0,1,85.93,143.93Z" style="fill:#64687e"/><path d="M63.57,22.16c.47,0,.78.09.89.61a24.59,24.59,0,0,0,1.26,5,.71.71,0,0,1-.46,1.08.78.78,0,0,1-1.1-.66c-.44-1.75-.85-3.51-1.25-5.28C62.79,22.39,63,22.12,63.57,22.16Z" style="fill:#727489"/><path d="M67.61,8.08a1.63,1.63,0,0,1,1.73,1.7,1.76,1.76,0,1,1-3.51.09A1.64,1.64,0,0,1,67.61,8.08Z" style="fill:#63677e"/><path d="M117.1,24.45a1.74,1.74,0,0,1-1.89-1.7A1.78,1.78,0,0,1,117,20.91a1.7,1.7,0,0,1,1.78,1.8A1.66,1.66,0,0,1,117.1,24.45Z" style="fill:#63677e"/><path d="M8.85,67.79a1.63,1.63,0,0,1,1.84-1.72,1.67,1.67,0,0,1,1.72,1.72,1.7,1.7,0,0,1-1.78,1.79A1.66,1.66,0,0,1,8.85,67.79Z" style="fill:#61657c"/><path d="M34.87,129.36a1.57,1.57,0,0,1,1.75-1.77,1.62,1.62,0,0,1,1.76,1.8,1.78,1.78,0,0,1-1.72,1.76A1.76,1.76,0,0,1,34.87,129.36Z" style="fill:#64687e"/><path d="M114.06,44.47a1,1,0,0,1-.93-.46c-.19-.38.06-.6.33-.83,1.35-1.16,2.7-2.31,4-3.49.46-.41.72-.46,1.2,0s.18.67-.18,1c-1.31,1.14-2.58,2.31-3.88,3.46A3.08,3.08,0,0,1,114.06,44.47Z" style="fill:#6c6e84"/><path d="M32.32,95.12a.74.74,0,0,1-.58.82c-1.55.66-3.1,1.32-4.66,2-.49.2-1.09.45-1.31-.35s.31-.84.79-1c1.53-.62,3.06-1.22,4.55-1.9C31.89,94.24,32.18,94.53,32.32,95.12Z" style="fill:#6b6d84"/><path d="M47.81,28.7c.53,0,.67.35.84.63.9,1.48,1.78,3,2.72,4.44.3.48.31.79-.2,1.12s-.77.06-1-.3c-1-1.57-2-3.14-2.93-4.73C46.79,29.1,47.58,29,47.81,28.7Z" style="fill:#6c6e84"/><path d="M23.82,62.9a50.27,50.27,0,0,0,5.42,1.3c.6.13.41.64.37,1s-.47.48-.76.38c-1.77-.58-3.66-.59-5.41-1.22a.69.69,0,0,1-.52-.85A.7.7,0,0,1,23.82,62.9Z" style="fill:#6f7187"/><path d="M119.5,111.09a1.12,1.12,0,0,1-.47.88.61.61,0,0,1-.79-.11c-1.38-1.18-2.75-2.37-4.14-3.55a.74.74,0,0,1-.12-1.18c.35-.4.74-.24,1.08.06l4,3.49C119.27,110.83,119.55,110.92,119.5,111.09Z" style="fill:#6a6d83"/><path d="M90.67,128.77c.13.73-.07,1-.48,1.13s-.65-.16-.8-.55A32.38,32.38,0,0,1,88,123.7a.64.64,0,0,1,.54-.73c.45-.12.7.09.81.53C89.81,125.35,90.28,127.2,90.67,128.77Z" style="fill:#6f7187"/><path d="M142.84,65.06a1.64,1.64,0,0,1,1.85,1.71,1.85,1.85,0,0,1-1.8,1.84,1.77,1.77,0,0,1-1.73-1.74A1.54,1.54,0,0,1,142.84,65.06Z" style="fill:#65697f"/><path d="M112.86,34.17c-.47.6-.93,1.22-1.42,1.81-.77.92-1.56,1.81-2.33,2.73-.3.35-.63.59-1.06.3a.74.74,0,0,1-.12-1.19c1.2-1.41,2.42-2.79,3.64-4.19.18-.2.3-.52.64-.18S112.81,33.74,112.86,34.17Z" style="fill:#6a6d83"/><path d="M34.91,40a7.51,7.51,0,0,1,1,.57c1.24,1,2.46,2.09,3.69,3.14.37.31.71.61.23,1.12s-.72.37-1.15,0c-1.37-1.2-2.78-2.36-4.18-3.52-.25-.21-.42-.45-.22-.73A3.15,3.15,0,0,1,34.91,40Z" style="fill:#6c6f85"/><path d="M45.42,38.89c-.31.48-.67,1-1.23.47-1.36-1.43-2.64-2.94-3.93-4.44a.57.57,0,0,1,.21-.86.74.74,0,0,1,1.08.16c1.18,1.38,2.4,2.72,3.6,4.09A2.62,2.62,0,0,1,45.42,38.89Z" style="fill:#6b6d84"/><path d="M63.81,129c.15-1.62,1-3.24,1.11-5.05a.74.74,0,0,1,1-.73c.51.16.62.52.49,1.07-.4,1.64-.73,3.3-1.08,4.95-.12.55-.36.93-1,.85S63.73,129.58,63.81,129Z" style="fill:#73758a"/><path d="M68.61,140.57a1.77,1.77,0,0,1,0,3.54,1.77,1.77,0,0,1,0-3.54Z" style="fill:#60647b"/><path d="M129.31,80.52,126,80.17c-.5,0-.9-.22-.83-.83s.55-.58,1-.55c1.64.13,3.29.24,4.94.35.52,0,1,.06,1,.79s-.56.7-1.07.67-1.15-.08-1.73-.12Z" style="fill:#64687f"/><path d="M118.89,100.61c.41,0,.68.4,1,.61l3.82,2.23c.42.24,1,.48.57,1.12s-.71.47-1.24.14c-1.42-.9-2.89-1.72-4.34-2.56a.83.83,0,0,1-.48-1A.62.62,0,0,1,118.89,100.61Z" style="fill:#6a6d83"/><path d="M25.52,73.16l-3.09-.23c-.55,0-.84-.32-.78-.89s.44-.67.9-.6a45.23,45.23,0,0,0,5.07.3c.54,0,.83.22.81.82s-.45.67-.93.64l-2-.1Z" style="fill:#6d6f85"/><path d="M102.23,34.75c-.39-.35-1.21-.34-.76-1.14.91-1.61,1.87-3.2,2.83-4.77a.69.69,0,0,1,1-.3.61.61,0,0,1,.28.93c-1,1.65-2,3.3-3,4.94A2.24,2.24,0,0,1,102.23,34.75Z" style="fill:#6c6f85"/><path d="M35.66,112.62a.66.66,0,0,1-.72-.35.79.79,0,0,1,.18-1q2.06-1.8,4.15-3.55c.23-.19.54-.44.85,0a.79.79,0,0,1,.14,1A6.14,6.14,0,0,1,38.8,110l-2.74,2.32C35.91,112.46,35.74,112.56,35.66,112.62Z" style="fill:#6b6d84"/><path d="M71.36,21.78c0-.37-.17-.86.57-.91s.83.26.87.86c.13,1.6.31,3.21.46,4.81,0,.52.07,1.06-.64,1.11s-.78-.44-.82-1C71.66,25.05,71.51,23.45,71.36,21.78Z" style="fill:#65687f"/><path d="M123.93,47a1.18,1.18,0,0,1-.68.86c-1.42.9-2.86,1.78-4.28,2.69-.35.22-.6.42-.89-.09s-.49-.69,0-1A49.46,49.46,0,0,1,123,46.4C123.68,46,123.68,46.74,123.93,47Z" style="fill:#6a6d83"/><path d="M128.91,117.7c-.83-1.14-.79-2.3.09-2.91a1.72,1.72,0,0,1,2.49.46,1.59,1.59,0,0,1-.31,2.37C130.45,118.33,129.68,118,128.91,117.7Z" style="fill:#65697f"/><path d="M41.64,118.68c-.52-.18-1-.53-.57-1.14,1.14-1.47,2.38-2.86,3.58-4.28.35-.42.68-.32,1.07,0s.25.59,0,.91c-1.14,1.37-2.25,2.76-3.37,4.14A1,1,0,0,1,41.64,118.68Z" style="fill:#696c83"/><path d="M30.6,105.67c-.47,0-.82-.06-.91-.45s-.11-.59.21-.78c1.57-1,3.16-1.88,4.72-2.85.45-.28.85-.38,1.15.14s0,.81-.46,1.07c-1.36.84-2.69,1.72-4.05,2.56A4.57,4.57,0,0,1,30.6,105.67Z" style="fill:#6b6e84"/><path d="M48.6,123.68c-.53-.05-1-.41-.65-1,.93-1.74,2-3.44,3-5.13a.63.63,0,0,1,.9-.07.71.71,0,0,1,.22,1c-.55,1-1.11,2-1.7,3-.35.61-.76,1.18-1.12,1.78A.65.65,0,0,1,48.6,123.68Z" style="fill:#6c6e84"/><path d="M35.53,50.69c-.24.41-.47.8-1.05.53a41.68,41.68,0,0,1-4.86-2.88c-.45-.29-.35-.67-.09-1.07s.61-.36.94-.11c1.34,1,2.88,1.72,4.29,2.62C35.08,50,35.48,50.2,35.53,50.69Z" style="fill:#696b82"/><path d="M109,112.39a.63.63,0,0,1,.55.3q1.76,2,3.5,4c.36.41.55.81,0,1.25s-.81,0-1.09-.35c-1.12-1.28-2.24-2.56-3.34-3.86-.2-.23-.55-.46-.25-.85C108.53,112.69,108.69,112.44,109,112.39Z" style="fill:#6c6e84"/><path d="M58.33,30.52c0,.52,0,.83-.47.87s-.66,0-.86-.46c-.65-1.64-1.4-3.24-2.1-4.86-.2-.47-.16-.93.37-1.15s.74,0,.94.51c.64,1.56,1.36,3.09,2,4.64A1.55,1.55,0,0,1,58.33,30.52Z" style="fill:#6a6d83"/><path d="M87.22,27.91c.13-1.82,1.1-3.45,1.17-5.3,0-.63.6-.57,1.08-.49.33.05.52.18.43.58-.45,1.85-.87,3.71-1.32,5.56-.14.58-.62.45-1,.41S87.21,28.23,87.22,27.91Z" style="fill:#6d6f85"/><path d="M98.92,126.36a.76.76,0,0,1-.64.74.64.64,0,0,1-.8-.41q-1.11-2.59-2.2-5.2a.53.53,0,0,1,.27-.73c.3-.16.75-.34.9,0C97.31,122.59,98.1,124.48,98.92,126.36Z" style="fill:#696c83"/><path d="M122.25,57.57c-.47,0-.8-.18-.92-.6s.13-.67.53-.83c1.63-.68,3.24-1.39,4.86-2.08.35-.15.75-.31,1,.12s.38.78-.06,1C125.86,56,124.05,56.78,122.25,57.57Z" style="fill:#6b6e84"/><path d="M23.15,115.65a1.51,1.51,0,0,1,2.21.08,1.82,1.82,0,0,1,.41,2.26c-.33.82-1.13.87-1.9.81a3.15,3.15,0,0,1-.71-.2C22.19,117.18,22.19,117,23.15,115.65Z" style="fill:#65697f"/><path d="M105.66,123.2c-.3.07-.35-.15-.46-.32-.94-1.51-1.9-3-2.83-4.51-.19-.32-.5-.7,0-1.07a.72.72,0,0,1,1.16.23c1,1.48,1.95,3,2.84,4.49C106.77,122.69,106.38,123.12,105.66,123.2Z" style="fill:#6b6d84"/><path d="M80.48,126.54c0-.5-.07-1-.09-1.49s.25-.73.76-.73.62.25.64.69c.1,1.77.24,3.54.34,5.31,0,.5.08,1-.7,1s-.58-.54-.62-1l-.36-3.82Z" style="fill:#6c6f85"/><path d="M23.76,89.94c-.29,0-.63,0-.62-.47,0-.35-.16-.75.41-.87,1.82-.37,3.52-1.22,5.42-1.28.32,0,.69-.17.74.35s.15.82-.35.94C27.52,89.07,25.67,89.49,23.76,89.94Z" style="fill:#686b81"/><path d="M22.69,81.38c-.53.06-.89-.07-.89-.71s.27-.7.77-.73c1.65-.1,3.3-.24,4.95-.35.44,0,.91-.11,1,.61s-.36.69-.85.73C26,81.06,24.34,81.23,22.69,81.38Z" style="fill:#65687f"/><path d="M100,22.43c-.3.19-.62.56-.89.53s-.33,0-.31.23,0,.31.26.3c.79,0,1.33.55,2,.9-.74.29-1.44-1-2-.21-.41.53-.23,1.47-.54,2.1-1,2-.91,4.22-1.91,6.15a.67.67,0,0,1-.65-.34c.56-2.22,1.06-4.46,1.79-6.63.15-.42.42-.82.13-1.28A8.52,8.52,0,0,1,100,20.37C99.93,21.05,99.53,21.75,100,22.43Z" style="fill:#c9c9d1"/><path d="M130,99.9c-.26-.41.51-.86,0-1.2-.33-.22-.71,0-1,.22,0-.83-.57-1-1.26-1-1.93-.15-3.63-1.21-5.53-1.47-.09,0-.15-.19-.22-.29s-.49-.29-.18-.6A25.66,25.66,0,0,1,127,96.88c.45.15.92.45,1.41.05,1.05.49,2.1,1,3.17,1.46.35.15.34.43.4.71C131,98.61,130.56,99.37,130,99.9Z" style="fill:#cbcbd3"/><path d="M55.32,16.66A3,3,0,0,1,57,20.19c0,.23.1.53-.18.66s-.48-.08-.64-.26c-.59-.63-1.14-1.31-1.76-1.9s.17-1.2-.18-1.74Z" style="fill:#d9d9de"/><path d="M60.07,105.66c1,.06,1-.35.5-1,1.15-2.31,1.37-4.89,2.24-7.28.16-.45.12-1,.63-1.27.45.11.1.6.38.8-.14,2-1.13,3.8-1.55,5.76-.36,1.73-1,3.42-1.33,5.18,0,.12-.24.2-.37.3h0c0-.37-.17-.82,0-1.08C61,106.31,60.53,106,60.07,105.66Z" style="fill:#babac5"/><path d="M53.06,129.19a1.6,1.6,0,0,0,1.5-.05c-.1-.46-.51-.66-.75-1,1.18-.24,1.09-1.35,1.49-2.13s-.15-1.68.78-2.14h0c.36,1-.69,2,0,3,.08,1.44-.94,2.49-1.34,3.76-.15.5-.37-.22-.62-.21C54.12,129.7,53,129.94,53.06,129.19Z" style="fill:#c5c5ce"/><path d="M126.45,72.64c-.88,0-1.44,0-1.5-.74a1,1,0,0,1,1-1.17c1.81-.15,3.64-.24,5.46-.33.39,0,.75,0,.77.57s.05,1-.51,1.14a4.58,4.58,0,0,1-1.1.23A22.54,22.54,0,0,0,126.45,72.64Z" style="fill:#b0b0bc"/><path d="M65.32,83.89c.16-.12.32-.33.5-.34a1.38,1.38,0,0,0,1.42-1.39c.06-.89.84-1.51.77-2.44.56.07.94.28.76.94-.77.23-.86.92-.91,1.54-.14,1.81-1.08,3.4-1.41,5.15,0,.12-.26.19-.39.28l-.13-.12c-.38-1.17.16-2.22.52-3.27C66.11,83.9,65.6,84.28,65.32,83.89Z" style="fill:#b2b2be"/><path d="M34.64,54.91l-.36,1.65c.73.1,1.12-.35,1.57-.68.13.33.1.95.71.35a.56.56,0,0,1,.56-.13.52.52,0,0,1,.24.42c-.15,1,.52.75,1,.75s1.63,0,1.47.89-1.12.51-1.76.32a19.13,19.13,0,0,0-3.22-.86A1.37,1.37,0,0,1,33.74,57a.6.6,0,0,1,.13-.6A1.48,1.48,0,0,1,34.64,54.91Z" style="fill:#b0b0bd"/><path d="M23.13,53.39c.41.56.84,0,1.26,0a5.5,5.5,0,0,0,3,1.16,15.68,15.68,0,0,1,2,.6.4.4,0,0,1,0,.54A10.68,10.68,0,0,1,25.81,55a4.85,4.85,0,0,0-1.67-.32c-.72-.1-1.22-.72-2-.8-.47-.06-.13-.43-.07-.67Z" style="fill:#bcbcc7"/><path d="M66.06,87.63a9.88,9.88,0,0,1-1.22,5,.23.23,0,0,1-.34-.07c-.26-1.79.49-3.32,1.24-4.84.06-.13.21-.11.33-.1Z" style="fill:#b6b6c1"/><path d="M96,32.17a.48.48,0,0,1,.53.26c.19.8,1.12.83,1.47,1.45a1.45,1.45,0,0,1-.36,0c-.35-.09-.72-.64-1-.19s0,.91.36,1.27c-1.11.33-1.52.09-1.5-.94A2.48,2.48,0,0,1,96,32.17Z" style="fill:#a3a3b2"/><path d="M64.53,92.63l.31,0a4,4,0,0,1-.74,2.83c-.33.44-.13,1-.28,1.41-.31-.2-.24-.55-.32-.83A3.87,3.87,0,0,1,64.53,92.63Z" style="fill:#b4b4c0"/><path d="M29.38,55.64v-.48l4.49,1.23v.52C32.34,56.61,30.67,56.81,29.38,55.64Z" style="fill:#b2b2bf"/><path d="M60.57,108.13a4.82,4.82,0,0,1-1,3.25c0,.12-.12.13-.19,0,.16-.83.35-1.65.47-2.49.07-.47.24-.76.75-.77Z" style="fill:#babac5"/><path d="M119.47,96.39c0-1-.72-.7-1.26-.76-.32-.21-1-.21-.55-.89,1.14-.17,2.29-.38,3.15.7l-.09.19A1.13,1.13,0,0,0,119.47,96.39Z" style="fill:#b1b0bd"/><path d="M57.08,120.62a4.12,4.12,0,0,1-1,3.26h0a4.46,4.46,0,0,1,1-3.24Z" style="fill:#b4b3c0"/><path d="M23.15,115.65a2.94,2.94,0,0,0,0,2.95C21.81,117.51,21.81,116.68,23.15,115.65Z" style="fill:#9c9dac"/><path d="M128.91,117.7a6.19,6.19,0,0,0,2.27-.08C130.46,118.79,129.69,118.43,128.91,117.7Z" style="fill:#a3a3b2"/><path d="M24.1,51.14a4.3,4.3,0,0,1-1,2.25A2.86,2.86,0,0,1,24.1,51.14Z" style="fill:#bcbcc7"/><path d="M.68,52.15c.24.46-.54,1.09.23,1.47-.13.42-.4.31-.65.15a.44.44,0,0,1-.2-.61C.24,52.81.47,52.48.68,52.15Z" style="fill:#aaaab7"/><path d="M35.86,62.89c0-.57-.56-.8-.75-1.25a2,2,0,0,1,1.49.79C36.2,62.34,36.12,62.75,35.86,62.89Z" style="fill:#9899a8"/><path d="M59.26,113.59a.41.41,0,0,1-.34.45c-.27,0-.29-.22-.29-.43s.06-.44.31-.44S59.28,113.35,59.26,113.59Z" style="fill:#9899a8"/><path d="M101.5,23.17a2.27,2.27,0,0,1-1.51-.75A1.27,1.27,0,0,1,101.5,23.17Z" style="fill:#c9c9d1"/><path d="M93.27,30.71a1.2,1.2,0,0,1-.8,1.43C92.31,31.42,93,31.18,93.27,30.71Z" style="fill:#63677e"/><path d="M121.72,95.63l.25.52c-.44-.12-1.12.35-1.25-.52v0A.72.72,0,0,1,121.72,95.63Z" style="fill:#b1b0bd"/><path d="M53.1,17.42c-.19.62-.92.36-1.24.77C52,17.42,52.62,17.58,53.1,17.42Z" style="fill:#d9d9de"/><path d="M57.09,120.64a1.91,1.91,0,0,1,.13-1.39c.19.54.28,1-.14,1.37Z" style="fill:#9899a8"/><path d="M24.59,53.12c0-.4.1-.8.54-1C25.13,52.56,25.17,53,24.59,53.12Z" style="fill:#bcbcc7"/><path d="M51.87,18.59c.44.14,1.07-.15,1.27.55C52.76,18.85,52.13,19.14,51.87,18.59Z" style="fill:#d9d9de"/><path d="M59.36,111.4l.19,0a1.62,1.62,0,0,1-.1,1.15A1.24,1.24,0,0,1,59.36,111.4Z" style="fill:#9899a8"/><path d="M54.16,17a1.15,1.15,0,0,1-1.07.46A1.06,1.06,0,0,1,54.16,17Z" style="fill:#d9d9de"/><path d="M96,32.17a5.15,5.15,0,0,1-.15,1.34c-.45,1.08,0,1.52,1.1,1.43a47,47,0,0,1,13.75,10.4,45.55,45.55,0,0,1,11.45,25.09,44.78,44.78,0,0,1-.92,16.23c-.3,1.21-.72,2.38-1,3.6-.2,1.06-.6,1-1.27.4a2.84,2.84,0,0,0-.26-.21A42.4,42.4,0,0,0,120.69,69,44.59,44.59,0,0,0,95.43,35.64a1.71,1.71,0,0,0,.87,2.08,37.44,37.44,0,0,1,9.84,6.8,39.3,39.3,0,0,1,5.9,6.83,46.59,46.59,0,0,1,4.49,8.23,43.58,43.58,0,0,1,3.12,20c-.22,3.39-1.19,6.59-1.85,9.88-.15.77-.42.42-.71.26-1.7-.91-3.4-1.84-5.09-2.77-.17-.09-.29-.29-.46-.39-2-1.17-2-1.16-1.48-3.2A34.82,34.82,0,0,0,110.62,72a27.38,27.38,0,0,0-1.91-7.82c-.37-.94-.33-1.47.82-1.7-.82-.72-1.36.23-2,.13-.33-2.12-1.59-3.81-2.74-5.51A34.31,34.31,0,0,0,94,46.82a1.69,1.69,0,0,1-.82-2.47c.22-.45,0-1,.26-1.44a31.79,31.79,0,0,0,1.2-4.19C94.08,40.2,94,41.64,93.38,43c-.63,2.72-1.47,5.39-2.21,8.08a62.62,62.62,0,0,0-1.71,6.42c-.16,1-.74,1.91-.89,3.16.88-3.23,1.78-6.21,2.5-9.24.28-1.19.86-2.3,1-3.54a.72.72,0,0,1,.71-.6c1.62.2,2.74,1.32,4,2.24A31.36,31.36,0,0,1,106.41,61c.29.61.77,1.24.12,1.92-1.78.48-3.59.85-5.32,1.45-2.79,1-5.68,1.58-8.48,2.53-1.9.65-3.88,1-5.74,1.78-1,.42-1,1.29-1.14,2.07-.06.24.36.62-.11.76s-.94.32-1.21-.33a7.66,7.66,0,0,0-2.78-3c-1.4-1-1.42-1.2-.75-2.72,1.11-2.51,2.13-5.06,3.18-7.61.7-1.71,1.35-3.44,2-5.15,1.2-3,2.43-5.91,3.64-8.87q2.31-5.65,4.63-11.32c.86-2.12,1.71-4.25,2.57-6.38a3.47,3.47,0,0,0,.41-1.3l.34-.69c.63.15.48.7.35,1C97.15,27.42,97,29.93,96,32.17Z" style="fill:#fffefe"/><path d="M29.38,55.64c1.43.68,3.11.44,4.49,1.27,1.57.66,3.35.61,4.88,1.43.26.14.87.23,1-.21s-.46-.45-.82-.47-.58,0-.77-.27c-.23-1.07.5-1.82,1-2.61A42.76,42.76,0,0,1,53.73,39.34,36.75,36.75,0,0,1,64.21,34.6c.93-.23,1.78-.69,2.73-.86a2.06,2.06,0,0,1,1.68.12,1.45,1.45,0,0,1-1.31,1.82A38.59,38.59,0,0,0,49.4,45a47,47,0,0,0-8,9.47,7.07,7.07,0,0,0-.43.76c-.6,1.25-.53,1.14.69,1.83a6.88,6.88,0,0,0,3.27.94,1.86,1.86,0,0,0,1.95-1,32.61,32.61,0,0,1,9.69-10.25,14.53,14.53,0,0,1,3-1.77,2.49,2.49,0,0,0,1.81-2.27,1.42,1.42,0,0,1,2.55-.85,1.56,1.56,0,0,0,1.77.37,38.07,38.07,0,0,1,6.53-1.39c1.82-.14,3.33.93,5.08.54a5.26,5.26,0,0,0,1.91-.43c.25-.16.57-.34.82-.23,1.46.62,3.05-.12,4.52.47.92.36,1.56,0,1.95-1A23,23,0,0,1,88.16,37c.44-.73.18-.95-.48-1.11-.49-.11-1-.13-1.48-.24a1.34,1.34,0,0,1-1.14-1.87,2.56,2.56,0,0,1,2,0,23.69,23.69,0,0,0,3.18.95c.27.05.87,0,.42.62-1.33,2.25-2.6,4.52-3.74,6.87a1.19,1.19,0,0,1-1.56.78A33,33,0,0,0,73,42.14,34.8,34.8,0,0,0,65.17,44a2.46,2.46,0,0,0-.6.43c-1.27-.27-1.8,1-2.75,1.37a26.27,26.27,0,0,0-5.37,3.26,36.82,36.82,0,0,0-8.52,9.3c-.15.2-.34.37-.48.57-.78,1.12-1.39,1.42-2.58.89-.72-.32-1.47-.54-2.19-.81,5.32,1.63,10.75,2.9,16,4.59.14.1.09-.16.06,0s0,0-.12,0c-1.73-.83-3.67-.95-5.43-1.62-1.5-.56-3.15-.57-4.6-1.31a1.22,1.22,0,0,1-.64-.54.7.7,0,0,1,.07-.53,3.14,3.14,0,0,0,.56-1.07,33.18,33.18,0,0,1,8.14-8.93A35.82,35.82,0,0,1,62.53,46c.32-.15.59-.49,1-.26q1.18,4,2.36,8c1,3.47,2,7,3,10.41.16.52-.07,1.1.32,1.55-.1.65-.1.65-.87.53a14.35,14.35,0,0,1,3.86,1c.3.13.57.2.26.58a8.8,8.8,0,0,0-3.76,3.9c-.26.6-.61.73-1.28.46-5.07-2.07-10.17-4.07-15.24-6.14-4.77-1.94-9.51-3.94-14.27-5.89-4.11-1.69-8.24-3.34-12.36-5-.48-.2-1-.15-1.46-.52a1,1,0,0,1,1.16-.17C26.58,55.18,28.11,55,29.38,55.64Z" style="fill:#fffefe"/><path d="M115,95.88A42.68,42.68,0,0,1,104.4,109a43.82,43.82,0,0,1-9.81,6.17,41.34,41.34,0,0,1-10.74,3.3,45.43,45.43,0,0,1-11.06.38c-2.88-.26-5.61-1.07-8.42-1.57-1-.18-1.45-.59-.82-1.67,1.29-2.24,2.51-4.53,3.75-6.79.18-.23.23-.69.71-.4a9.85,9.85,0,0,0,4.33,1,34.32,34.32,0,0,0,16-1.64c1.48-.55,2-.34,2.19.89.33-.25,0-.42-.07-.61-.3-.76-.1-1.22.68-1.57a31.56,31.56,0,0,0,13.8-11.84c.48-.73,1-1.41,1.49-2.16,1-.88,2.08-.07,3.12-.16l.39.11a10.35,10.35,0,0,0,3.53,1.08,2.23,2.23,0,0,1,.36,0C115.57,94,115.72,94.28,115,95.88Z" style="fill:#fff"/><path d="M121.72,95.63l-1,0c-.93-.9-2.1-.78-3.25-.77l-.18-.06a1.35,1.35,0,0,0-.73-.42c-2.32-.38-4.52-1.28-6.82-1.77h0c-2-.4-3.87-1-5.8-1.57a46.28,46.28,0,0,1-5.72-1.7c-.94-.41-2-.41-3-.83-1.48,0-2.69-1-4-1,1.24.11,2.47,1,3.94,1,2,.4,3.76,1.32,5.76,1.64,1.34.21,2.59.92,4,1.11.68.1.77.66.57,1.26a30.81,30.81,0,0,1-10.11,11,40.38,40.38,0,0,1-3.6,2.21c-1.64.86-1.72.8-2.31-.89a4.45,4.45,0,0,0-.47-2.4c-.82-1.94-1.18-4-1.83-6-1.09-3.31-2-6.69-2.93-10a2.65,2.65,0,0,0-2.45-1.48,2.57,2.57,0,0,1-1.09.14c.28-1.31,1.61-1.6,2.4-2.4A12.45,12.45,0,0,0,85,80.21c.29-.5.55-.7,1.18-.43,2.85,1.22,5.73,2.37,8.6,3.54,3.07,1.26,6.14,2.53,9.22,3.77,3.64,1.46,7.29,2.87,10.93,4.34,2.83,1.14,5.62,2.42,8.48,3.48,1.71.63,3.16,1.89,5.06,2-.13.65-.69.5-1,.37C125.61,96.48,123.56,96.41,121.72,95.63Z" style="fill:#fff"/><path d="M64.84,77.88c-3.16,1.82-6.26,3.63-9.39,5.4s-6.31,3.52-9.53,5.27a.76.76,0,0,0,.2-.76,32.21,32.21,0,0,1-2.09-15,47.23,47.23,0,0,1,.9-5.14c.13-.66.43-.41.77-.24,1.37.73,2.77,1.42,4.13,2.17,2.87,1.57,5.72,3.18,8.59,4.76C60.57,75.55,62.72,76.72,64.84,77.88Z" style="fill:#fff"/><path d="M88.74,74.17c1.67-.92,3.18-1.73,4.67-2.57,2.6-1.47,5.2-2.93,7.76-4.46,1.79-1.07,3.69-2,5.42-3.15.51-.35.92-.13,1.16.58a33.83,33.83,0,0,1,1.77,15.19,34.67,34.67,0,0,1-.79,4.4c-.17.68-.43.71-.91.45-2.65-1.47-5.27-3-7.95-4.41C97,78.69,94.2,77,91.23,75.58A17.53,17.53,0,0,0,88.74,74.17Z" style="fill:#fff"/><path d="M68.32,106.88c.91-1.63,1.83-3.26,2.74-4.9,1.7-3,3.43-6.09,5.07-9.18.92-1.73,1.78-3.48,2.85-5.11,0,1.8,1.33,3.09,2.11,4.58,1.52,3,3.26,5.78,4.91,8.66l2.53,4.46c1,1.37.93,1.45-.64,2a33.31,33.31,0,0,1-18.63,1.06C67.92,108.18,67.8,107.93,68.32,106.88Z" style="fill:#fff"/><path d="M64.53,92.63c-.34,1.14-.68,2.28-1,3.43q-1.11,3.91-2.23,7.84c-.1.36-.21.73-.7.74a29,29,0,0,1-7.51-5.8A35.85,35.85,0,0,1,47,90c-.27-.55-.25-.75.41-.92,2.26-.59,4.5-1.24,6.74-1.9q5.61-1.64,11.22-3.31c.35.12.63-.11.93-.21s.53-.12.68.14a.62.62,0,0,1-.11.68,5,5,0,0,0-.75,3.14A19,19,0,0,0,64.53,92.63Z" style="fill:#fffefe"/><path d="M84.11,76.07A7.27,7.27,0,1,1,69.58,76a7.12,7.12,0,0,1,7.3-7.24A7.25,7.25,0,0,1,84.11,76.07Z" style="fill:#fff"/><path d="M76.05,43.12h1.5A2.62,2.62,0,0,0,80,44.32a24.48,24.48,0,0,1,3,.29c1,.09,1.28.62.74,1.55q-1.35,2.31-2.57,4.68C79.52,54,77.57,57,76,60.24a3.52,3.52,0,0,1-.4.63c-.63.77-1,.77-1.46-.13-.82-1.44-1.6-2.91-2.49-4.32-1.79-2.83-3.16-5.9-4.91-8.76-.69-1.12-.55-1.4.52-2.09,1.87-1.18,4-1,6-1.21A3.42,3.42,0,0,0,76.05,43.12Z" style="fill:#fff"/><path d="M90.69,35.38c-.87-.59-2-.56-2.9-1A4.93,4.93,0,0,0,85,33.91c-1.64.4-3.18-.31-4.78-.46a32.07,32.07,0,0,0-9.63.43,3,3,0,0,1-2.06,0c-2.17-.09-4.12.85-6.09,1.52a39.57,39.57,0,0,0-10,5.07,42.19,42.19,0,0,0-10,9.69,39.9,39.9,0,0,0-4.32,7.18c-1.46.49-.79-.73-1-1.25.06-1.54,1-2.7,1.78-3.89A43.09,43.09,0,0,1,48.94,41a47.79,47.79,0,0,1,10.92-6.39A41.09,41.09,0,0,1,71.61,31.5,45.21,45.21,0,0,1,85.48,32c2.11.46,4.1,1.33,6.26,1.55l0,.32C91.34,34.34,91.27,35.05,90.69,35.38Z" style="fill:#64687e"/><path d="M117.46,94.88c.14.37.79.22.75.75a47.76,47.76,0,0,1-12.52,15.87,48.71,48.71,0,0,1-7.42,4.92,46.65,46.65,0,0,1-13.62,4.7,47.59,47.59,0,0,1-12.67.41,47,47,0,0,1-9.22-1.93c-.84-.25-1-.41-.58-1.34s.67.08.83.12c2.17.51,4.31,1.18,6.52,1.52a44.55,44.55,0,0,0,9.44.51,45.62,45.62,0,0,0,13.44-2.79A45.12,45.12,0,0,0,102.94,112a42,42,0,0,0,7.69-7.16,50.93,50.93,0,0,0,5.31-7.73,6.35,6.35,0,0,0,.76-1.49c0-.27-.12-.59.2-.79a.5.5,0,0,1,.58.06Z" style="fill:#f4f3f5"/><path d="M76.05,43.12c-.1,1.19-1,1.49-1.92,1.52-1.62,0-3.21.34-4.81.46-1,.08-1.59.8-2.45,1.07-.51.17-.27.65-.06.95a48.28,48.28,0,0,1,3.44,6c1.41,2.76,3.28,5.25,4.52,8.22,1.17-1,1.53-2.34,2.18-3.47A38.65,38.65,0,0,1,79.78,53a20,20,0,0,0,1-2.23c1-1.6,1.72-3.34,2.76-4.92.4-.6.17-.94-.55-.91-1.21.06-2.38-.29-3.59-.29-.88,0-1.9-.18-1.87-1.49a23.83,23.83,0,0,1,7.36,1c.66.17.76.44.41,1-1,1.8-2.07,3.63-3.07,5.46-1.49,2.74-3,5.49-4.44,8.24-.9,1.65-1.8,3.31-2.74,5-.64-.27-.75-1-1.06-1.52q-1.8-3.07-3.56-6.18c-1.54-2.72-3.1-5.43-4.56-8.19a9.57,9.57,0,0,1-1.33-2.29c-.2-.33-.09-.53.27-.63a4.38,4.38,0,0,0,1.27-.36c2.24-.32,4.36-1.17,6.63-1.39A16.73,16.73,0,0,1,76.05,43.12Z" style="fill:#fff"/><path d="M68.32,106.88c-.53,1,.23,1.11.83,1.23a36.12,36.12,0,0,0,11,.69,38.86,38.86,0,0,0,8.31-1.92c1.4-.47-.1-1,.09-1.49.52.2.71.69.94,1.25.6-.68-.14-1.25.07-1.8.79,1.41.8,1.42,2.31.57a34.21,34.21,0,0,0,11.7-10.18c.6-.84,1.12-1.74,1.68-2.61.28-.32.5-.77,1-.62.33.1.41.35.26.66a31.74,31.74,0,0,1-4.59,6.43,36.58,36.58,0,0,1-7.4,6.13,13.45,13.45,0,0,1-3.07,1.56c-.89.3-1.19.6-.75,1.47a5,5,0,0,1,.14,1c-.78-1.43-1.51-1.46-2.75-1a33.83,33.83,0,0,1-16.25,1.52,9.71,9.71,0,0,1-4.29-1.09s-.17.14-.27.22A2.58,2.58,0,0,1,68.32,106.88Z" style="fill:#6a6d83"/><path d="M66.1,44.67c-.24.76-1.33.19-1.54,1-.33.2-.78-1.46-1,.06a46.68,46.68,0,0,0-8,5.16,33.91,33.91,0,0,0-6.7,7.78c-.33.24-.29.68-.56,1l-.25.25c-.23.32-.54.6-.91.3s-.14-.67,0-1,.48-.66.68-1a31.21,31.21,0,0,1,4.66-6,34.87,34.87,0,0,1,5.81-4.77,16.06,16.06,0,0,1,2.86-1.65c1.09-.43,2-.84,2.06-2.29.32.6.57,1.18,1.34,1C64.94,45.34,65.64,44.3,66.1,44.67Z" style="fill:#6a6d83"/><path d="M94.23,46.7a33.66,33.66,0,0,1,9.93,9,47.93,47.93,0,0,1,3.08,4.9c.36.62.82,1.28.3,2.06l-1,.28a1.5,1.5,0,0,0-.13-1.43A34,34,0,0,0,94.3,48.09,13.45,13.45,0,0,0,93,47.44c-.21-.34-1.1-.08-.8-.82.24-.58.84-.45,1.29-.29A1.36,1.36,0,0,1,94.23,46.7Z" style="fill:#6b6e84"/><path d="M117.48,94.89l-.58-.06c-1.14-.57-1.37.55-1.93,1a.49.49,0,0,0,0-.12c-.14-.5.68-1,.34-1.18a4.67,4.67,0,0,0-1.69-.66,7.73,7.73,0,0,1-3.88-1.29,7.79,7.79,0,0,1,3.54.73,18.82,18.82,0,0,0,3.17.78A1.34,1.34,0,0,1,117.48,94.89Z" style="fill:#b1b0bd"/><path d="M72.51,67.85c-1-1-2.39-.91-3.63-1.21-.23-.06-.5,0-.66-.29.12-.56,1,.07,1-.66.82.76,2,.6,2.94,1.31.52.4,1.23-.53,1.55-1.29C73.93,66.45,73.5,67.15,72.51,67.85Z" style="fill:#a7a7b5"/><path d="M116.7,95.62c.13.69-.38,1.06-.76,1.49A2.21,2.21,0,0,1,116.7,95.62Z" style="fill:#b1b0bd"/><path d="M97.48,24.87c.1.51.12,1-.41,1.3C97.21,25.74,97.35,25.31,97.48,24.87Z" style="fill:#c9c9d1"/><path d="M91.74,33.59c-.39.45-.83.38-1.35.2a41.93,41.93,0,0,0-22.32-1.34A43.83,43.83,0,0,0,39.93,51.32c-1,1.58-2,3.17-2.83,4.82-.48.23-.71,1-1.52.65-.15-.33.45-.54.27-.91A45.35,45.35,0,0,1,58.37,34.12a46.22,46.22,0,0,1,14.84-3.73,49.57,49.57,0,0,1,11.42.52,69.73,69.73,0,0,1,7,1.73C92.41,32.85,91.44,33.31,91.74,33.59Z" style="fill:#f2f1f3"/><path d="M136.45,56.73c0,.16.12.81-.52.64-1-.26-.65-1.39-1.12-2-.17-.23.13-.49.42-.4A1.47,1.47,0,0,1,136.45,56.73Z" style="fill:#eae9ec"/><path d="M98.73,133.7c0,.77-.64.88-1.14,1.12a1.32,1.32,0,0,1-1.39-.25.29.29,0,0,1,0-.44,5.36,5.36,0,0,1,2.24-1C98.72,133.1,98.72,133.44,98.73,133.7Z" style="fill:#dcdbe0"/><path d="M126.09,72.32c-.38,0-.77,0-.83-.48s.24-.49.54-.52c1.75-.22,3.51-.44,5.26-.62a.68.68,0,0,1,.77.65c0,.44-.37.48-.7.51Z" style="fill:#65697f"/><path d="M94.23,46.7a2.68,2.68,0,0,0-1.91,0c0,.52.77.23.66.77-.26,0-.58.07-.62.33-.39,2.28-1.26,4.41-1.84,6.63a39.29,39.29,0,0,1-1.66,5.84c-.16.4.13.95-.4,1.23-.24-.77,3.56-15.42,4.81-18.56.08-.11.16-.11.24,0a3.13,3.13,0,0,1,0,1.23A1.81,1.81,0,0,0,94.23,46.7Z" style="fill:#b9b8c4"/><path d="M93.51,42.9h-.24c.17-.8.29-1.61.5-2.39a10.87,10.87,0,0,1,.87-2.19A7.23,7.23,0,0,1,93.51,42.9Z" style="fill:#bcbcc7"/><path d="M68.56,33.93a34.37,34.37,0,0,1,16.47,0,1.45,1.45,0,0,0,1.6,1.51,4.45,4.45,0,0,1,1.09.19c1.55.37,1.48.33.63,1.65a18.14,18.14,0,0,0-1.59,3.14,1.59,1.59,0,0,1-2.1,1.18c-1.06-.26-2.13-.85-3.21,0,0,0-.09,0-.11,0-1.72-1.4-3.34.74-5.08.13-.65-.24-1.49.17-2-.63a.72.72,0,0,0-.58-.14c-2.8.42-5.68.54-8.32,1.73-.66.3-1.17.39-1.5-.42s-1-.63-1.61-.53-.74.7-.65,1.18c.23,1.24-.62,1.82-1.45,2.17a21.13,21.13,0,0,0-4.4,2.66,34.68,34.68,0,0,0-7.11,7,24,24,0,0,1-2.14,3.16c-.14.14-.32.44-.42.41-1.3-.37-2.84.47-4-.68-.66-.68-1.61-.33-2.27-.85a26.34,26.34,0,0,1,4.71-7.26,42.24,42.24,0,0,1,9.91-8.85,43.43,43.43,0,0,1,9.68-4.55,10.67,10.67,0,0,1,3-.76A1.32,1.32,0,0,0,68.56,33.93Z" style="fill:#fff"/><path d="M47.84,58.14a10,10,0,0,1-.41,1c-.13.25-.44.48-.26.76s.58-.06.88,0a2.38,2.38,0,0,0,1.67,1c2.3.38,4.48,1.22,6.74,1.75,1.17.28,2.3.69,3.57,1.08-.88.32-16.2-3.69-18.66-4.82a2.87,2.87,0,0,1,2.72.33c.69.4,1.43.33,2.08.65.39.19.61,0,.68-.43A2.09,2.09,0,0,1,47.84,58.14Z" style="fill:#b9b8c4"/><path d="M64.93,65.46c.89-.62,1.66.08,2.49.06.09,0,.28.23.27.34,0,.35-.38.32-.58.26A9.34,9.34,0,0,0,64.93,65.46Z" style="fill:#a7a7b5"/><path d="M48.3,59.61a1,1,0,0,1,.56-1A1,1,0,0,1,48.3,59.61Z" style="fill:#b9b8c4"/><path d="M106.53,92.66c-.41-1.12-.86-.18-1.3,0,.29-.74.07-1.08-.76-1.23a59.71,59.71,0,0,1-7.4-2.06c-.61-.2-1.35-.06-1.83-.64-.12-.11-.11-.21,0-.3,3.63.73,7.08,2.07,10.7,2.86,1.26.28,2.72.41,3.78,1.39C108.67,93,107.6,91.93,106.53,92.66Z" style="fill:#b7b7c3"/><path d="M95.26,88.39l0,.3c-1.55.12-2.85-.72-4.3-1.06a2.6,2.6,0,0,1,2.59.23A6.07,6.07,0,0,0,95.26,88.39Z" style="fill:#b4b4c0"/></g></g></svg>